# xmcd
#
# Track frame offsets: 
#        150
#        12176
#        39905
#        63351
#        102019
#        122338
#        133987
#        152484
#        198427
#        207842
#        222694
#        236961
#
# Disc length: 3355 seconds
#
# Revision: 2
# Processed by: cddbd v1.5.1PL2 Copyright (c) Steve Scherf et al.
# Submitted via: ExactAudioCopy v0.95b4
#
DISCID=a60d190c
DTITLE=B.B. King - Big Blues Collection
DYEAR=1900
DGENRE=
TTITLE0=How blue can you get ?
TTITLE1=Sweet Sixteen
TTITLE2=Ghetto woman
TTITLE3=Why i sing the blues
TTITLE4=Hummingbird
TTITLE5=All over again
TTITLE6=Guess who
TTITLE7=Lucille
TTITLE8=Sneaking around
TTITLE9=I go some help..
TTITLE10=Ain't nobody home
TTITLE11=I like live the love
EXTD=Efes Pilsener Blues CollectionTome 3
EXTT0=
EXTT1=
EXTT2=
EXTT3=
EXTT4=
EXTT5=
EXTT6=
EXTT7=
EXTT8=
EXTT9=
EXTT10=
EXTT11=
PLAYORDER=
